<svg id="Layer_1" xmlns="http://www.w3.org/2000/svg" xmlns:xlink="http://www.w3.org/1999/xlink" viewBox="0 0 166 166"><style>.st0{fill:#fff}.st1{clip-path:url(#SVGID_2_)}.st2{stroke:#000;stroke-width:6;stroke-miterlimit:10}</style><circle cx="83" cy="83" r="80.6"/><circle cx="83" cy="83" r="74.4"/><path class="st0" d="M83 159c-41.9 0-76-34.1-76-76S41.1 7 83 7s76 34.1 76 76-34.1 76-76 76zm0-148.8c-40.1 0-72.8 32.7-72.8 72.8 0 40.1 32.7 72.8 72.8 72.8 40.1 0 72.8-32.7 72.8-72.8 0-40.1-32.7-72.8-72.8-72.8z"/><path class="st0" d="M45.5 27.8c.8-.2 1.6-.2 2.4-.1.8.2 1.4.5 2.1.9.6.4 1.2 1 1.7 1.6.6.8 1 1.6 1.2 2.4.2.8.3 1.6.1 2.3-.1.8-.4 1.5-.8 2.1-.4.7-1 1.3-1.7 1.8s-1.5.9-2.2 1.1c-.8.2-1.5.3-2.3.2-.8-.1-1.5-.4-2.2-.8-.7-.5-1.3-1.1-1.9-1.8-.5-.7-.9-1.5-1.1-2.2-.2-.8-.3-1.5-.1-2.3.1-.8.4-1.5.8-2.1.4-.7 1-1.3 1.7-1.8.6-.7 1.4-1.1 2.3-1.3zM44 32.1c-.1.3-.2.7-.1 1s.1.7.3 1.1c.2.3.4.7.6 1 .2.3.5.6.8.9.3.3.6.5.9.6.3.2.7.2 1 .2.4 0 .7-.2 1.1-.4.6-.5.9-1.1.9-1.8-.1-.7-.4-1.5-1-2.3-.2-.3-.5-.6-.8-.9-.3-.3-.6-.5-.9-.6-.3-.1-.7-.2-1-.2-.3 0-.7.2-1 .4-.4.4-.7.7-.8 1zm15.5.5l.2-12.4 3.7-1.2 7.7 9.7-3.6 1.2-.9-1.3-3.6 1.2.1 1.6-3.6 1.2zm3.1-9.7l.2 4.3 2.3-.8-2.5-3.5zm13.7-6.7l3.8-.1.1 7c0 .3 0 .6.1.9 0 .2.1.5.3.7.1.2.3.3.6.4.2.1.6.2.9.1.6 0 1.1-.2 1.4-.6.3-.4.4-.9.4-1.6l-.1-7 3.8-.1.1 6.6c0 1.9-.4 3.2-1.3 4.1-.9.9-2.3 1.3-4.2 1.4-.9 0-1.7-.1-2.4-.2-.7-.2-1.3-.5-1.8-.9s-.8-1-1.1-1.6c-.3-.7-.4-1.5-.4-2.5l-.2-6.6zm20.5 1.1l10.2 3-.9 2.9-3.3-1-2.4 8.2-3.7-1.1 2.4-8.2-3.3-1 1-2.8zm12.3 16.6l6.5-9.7 3.2 2.1-2.2 3.3 3 2 2.2-3.3 3.2 2.1-6.5 9.7-3.2-2.1 2.5-3.7-3-2-2.5 3.7-3.2-2.1z"/><defs><circle id="SVGID_1_" cx="83" cy="83" r="49.8"/></defs><clipPath id="SVGID_2_"><use xlink:href="#SVGID_1_" overflow="visible"/></clipPath><g class="st1"><path transform="rotate(-45.001 73.785 73.952)" class="st0" d="M24.1 73.7h99.3v.5H24.1z"/><path transform="rotate(-45.001 79.64 79.807)" class="st0" d="M30 79.5h99.3v.5H30z"/><path transform="rotate(-45.001 85.494 85.662)" class="st0" d="M35.9 85.4h99.3v.5H35.9z"/><path transform="rotate(-45.001 91.349 91.516)" class="st0" d="M41.7 91.2H141v.5H41.7z"/><path transform="rotate(-45.001 97.204 97.371)" class="st0" d="M47.6 97.1h99.3v.5H47.6z"/><path transform="rotate(-45.001 103.059 103.226)" class="st0" d="M53.4 103h99.3v.5H53.4z"/><path transform="rotate(-45.001 108.913 109.08)" class="st0" d="M59.3 108.8h99.3v.5H59.3z"/><path transform="rotate(-45.001 114.768 114.936)" class="st0" d="M65.1 114.7h99.3v.5H65.1z"/><path transform="rotate(-45.001 50.366 50.533)" class="st0" d="M.7 50.3H100v.5H.7z"/><path transform="rotate(-45.001 56.221 56.387)" class="st0" d="M6.6 56.1h99.3v.5H6.6z"/><path transform="rotate(-45.001 62.076 62.242)" class="st0" d="M12.4 62h99.3v.5H12.4z"/><path transform="rotate(-45.001 67.93 68.097)" class="st0" d="M18.3 67.8h99.3v.5H18.3z"/><path transform="rotate(-45.001 91.349 73.952)" class="st0" d="M91.1 24.3h.5v99.3h-.5z"/><path transform="rotate(-45.001 85.494 79.807)" class="st0" d="M85.2 30.2h.5v99.3h-.5z"/><path transform="rotate(-45.001 79.64 85.661)" class="st0" d="M79.4 36h.5v99.3h-.5z"/><path transform="rotate(-45.001 73.785 91.516)" class="st0" d="M73.5 41.9h.5v99.3h-.5z"/><path transform="rotate(-45.001 67.93 97.371)" class="st0" d="M67.7 47.7h.5V147h-.5z"/><path transform="rotate(-45.001 62.076 103.226)" class="st0" d="M61.8 53.6h.5v99.3h-.5z"/><path transform="rotate(-45.001 56.22 109.08)" class="st0" d="M56 59.4h.5v99.3H56z"/><path transform="rotate(-45.001 50.365 114.935)" class="st0" d="M50.1 65.3h.5v99.3h-.5z"/><path transform="rotate(-45.001 114.77 50.533)" class="st0" d="M114.5.9h.5v99.3h-.5z"/><path transform="rotate(-45.001 108.915 56.388)" class="st0" d="M108.6 6.7h.5V106h-.5z"/><path transform="rotate(-45.001 103.06 62.243)" class="st0" d="M102.8 12.6h.5v99.3h-.5z"/><path transform="rotate(-45.001 97.204 68.098)" class="st0" d="M96.9 18.5h.5v99.3h-.5z"/></g><path class="st2" d="M59.4 112.5v-9.2l8.4-7.6C82 82.8 89 75.5 89.2 67.9c0-5.3-3.2-9.5-10.7-9.5-5.6 0-10.5 2.8-13.9 5.4l-4.3-10.9c4.9-3.7 12.5-6.7 21.4-6.7 14.8 0 22.9 8.6 22.9 20.5 0 10.9-7.9 19.7-17.4 28.1l-6 5v.2h24.6v12.5H59.4z"/><path class="st0" d="M59.4 112.5v-9.2l8.4-7.6C82 82.8 89 75.5 89.2 67.9c0-5.3-3.2-9.5-10.7-9.5-5.6 0-10.5 2.8-13.9 5.4l-4.3-10.9c4.9-3.7 12.5-6.7 21.4-6.7 14.8 0 22.9 8.6 22.9 20.5 0 10.9-7.9 19.7-17.4 28.1l-6 5v.2h24.6v12.5H59.4zm61.1 25.7c-.8.2-1.6.2-2.4.1-.8-.2-1.4-.5-2.1-.9-.6-.4-1.2-1-1.7-1.6-.6-.8-1-1.6-1.2-2.4-.2-.8-.3-1.6-.1-2.3.1-.8.4-1.5.8-2.1.4-.7 1-1.3 1.7-1.8s1.5-.9 2.2-1.1c.8-.2 1.5-.3 2.3-.2.8.1 1.5.4 2.2.8.7.5 1.3 1.1 1.9 1.8.5.7.9 1.5 1.1 2.2.2.8.3 1.5.1 2.3s-.4 1.5-.8 2.1c-.4.7-1 1.3-1.7 1.8-.6.7-1.5 1.1-2.3 1.3zm1.5-4.3c.1-.3.2-.7.1-1 0-.4-.1-.7-.3-1.1-.2-.3-.4-.7-.6-1-.2-.3-.5-.6-.8-.9-.3-.3-.6-.5-.9-.6-.3-.2-.7-.2-1-.2-.4 0-.7.2-1.1.4-.6.5-.9 1.1-.9 1.8.1.7.4 1.5 1 2.3.2.3.5.6.8.9.3.3.6.5.9.6s.7.2 1 .2c.3 0 .7-.2 1-.4.4-.4.7-.7.8-1zm-15.5-.5l-.2 12.4-3.7 1.2-7.7-9.7 3.6-1.2.9 1.3 3.6-1.2-.1-1.6 3.6-1.2zm-3.1 9.7l-.2-4.3-2.3.8 2.5 3.5zm-13.7 6.7l-3.8.1-.1-7c0-.3 0-.6-.1-.9 0-.2-.1-.5-.3-.7-.1-.2-.3-.3-.6-.4-.2-.1-.6-.2-.9-.1-.6 0-1.1.2-1.4.6-.3.4-.4.9-.4 1.6l.1 7-3.8.1-.1-6.6c0-1.9.4-3.2 1.3-4.1.9-.9 2.3-1.3 4.2-1.4.9 0 1.7.1 2.4.2.7.2 1.3.5 1.8.9s.8 1 1.1 1.6c.3.7.4 1.5.4 2.5l.2 6.6zm-20.5-1.1l-10.2-3 .9-2.9 3.3 1 2.4-8.2 3.7 1.1-2.4 8.2 3.3 1-1 2.8zm-12.3-16.6l-6.5 9.7-3.2-2.1 2.2-3.3-3-2-2.2 3.3-3.2-2.1 6.5-9.7 3.2 2.1-2.5 3.7 3 2 2.5-3.7 3.2 2.1z"/></svg>